<svg xmlns="http://www.w3.org/2000/svg" xmlns:xlink="http://www.w3.org/1999/xlink" viewBox="0 0 1807.45 427.36"><defs><style>.cls-1,.cls-4{fill:#fff;}.cls-2{isolation:isolate;}.cls-3{clip-path:url(#clip-path);}.cls-4{mix-blend-mode:multiply;}.cls-5{clip-path:url(#clip-path-2);}.cls-6{clip-path:url(#clip-path-3);}.cls-7{clip-path:url(#clip-path-4);}</style><clipPath id="clip-path"><path class="cls-1" d="M260.84,235.26a59.92,59.92,0,0,1-5.6,25.58,67.44,67.44,0,0,1-15.66,21.3,73.9,73.9,0,0,1-13.16,9.7,77.37,77.37,0,0,1-10.1,5.05,74.33,74.33,0,0,1-56.17,0,77.35,77.35,0,0,1-7.77-3.74,73,73,0,0,1-15.32-11,68.9,68.9,0,0,1-15.42-21.3A59.65,59.65,0,0,1,116,235.26c0-.94,0-1.87.07-2.81a59.37,59.37,0,0,0,5.56,22.7,68.9,68.9,0,0,0,15.42,21.3,73,73,0,0,0,15.32,11,75.18,75.18,0,0,0,7.77,3.73,74.21,74.21,0,0,0,56.17,0,76.09,76.09,0,0,0,10.1-5,73.9,73.9,0,0,0,13.16-9.7,67.44,67.44,0,0,0,15.66-21.3,59.71,59.71,0,0,0,5.54-22.7C260.82,233.39,260.84,234.32,260.84,235.26Z"/></clipPath><clipPath id="clip-path-2"><path class="cls-1" d="M261.4,229.35a60.55,60.55,0,0,1-5.64,25.78A68.34,68.34,0,0,1,240,276.6a75.08,75.08,0,0,1-13.27,9.77,77.92,77.92,0,0,1-10.18,5.08,74.8,74.8,0,0,1-56.6,0,77.54,77.54,0,0,1-7.84-3.76,74,74,0,0,1-15.43-11.09,69.49,69.49,0,0,1-15.54-21.47,60.13,60.13,0,0,1-5.67-25.78c0-.95,0-1.89.07-2.83a59.75,59.75,0,0,0,5.6,22.88,69.33,69.33,0,0,0,15.54,21.46A73.66,73.66,0,0,0,152.09,282a79.81,79.81,0,0,0,7.84,3.77,74.93,74.93,0,0,0,56.6,0,79.19,79.19,0,0,0,10.18-5.08A75.13,75.13,0,0,0,240,270.86a68.19,68.19,0,0,0,15.78-21.46,60.28,60.28,0,0,0,5.58-22.88C261.38,227.46,261.4,228.4,261.4,229.35Z"/></clipPath><clipPath id="clip-path-3"><path class="cls-1" d="M260.28,228.78a58.76,58.76,0,0,1-5.5,25.09,66.2,66.2,0,0,1-15.36,20.89,73.19,73.19,0,0,1-12.9,9.51,76.27,76.27,0,0,1-9.91,4.94,72.8,72.8,0,0,1-55.08,0,73.45,73.45,0,0,1-7.63-3.66,71.64,71.64,0,0,1-15-10.79,67.69,67.69,0,0,1-15.13-20.89,58.49,58.49,0,0,1-5.52-25.09c0-.92,0-1.83.07-2.75a58.27,58.27,0,0,0,5.45,22.26,67.69,67.69,0,0,0,15.13,20.89,71.64,71.64,0,0,0,15,10.79,75.54,75.54,0,0,0,7.63,3.66,72.8,72.8,0,0,0,55.08,0,76.27,76.27,0,0,0,9.91-4.94,73.19,73.19,0,0,0,12.9-9.51,66.2,66.2,0,0,0,15.36-20.89A58.62,58.62,0,0,0,260.21,226C260.25,227,260.28,227.86,260.28,228.78Z"/></clipPath><clipPath id="clip-path-4"><path class="cls-1" d="M260.84,229a59.92,59.92,0,0,1-5.6,25.58,67.44,67.44,0,0,1-15.66,21.3,73.9,73.9,0,0,1-13.16,9.7,78.6,78.6,0,0,1-10.1,5,74.21,74.21,0,0,1-56.17,0,79.07,79.07,0,0,1-23.09-14.74,68.9,68.9,0,0,1-15.42-21.3A59.65,59.65,0,0,1,116,229c0-.94,0-1.87.07-2.81a59.37,59.37,0,0,0,5.56,22.7,69,69,0,0,0,15.42,21.3,72.93,72.93,0,0,0,15.32,11,75.24,75.24,0,0,0,7.77,3.74,74.33,74.33,0,0,0,56.17,0,78.6,78.6,0,0,0,10.1-5,73.9,73.9,0,0,0,13.16-9.7,67.55,67.55,0,0,0,15.66-21.3,59.71,59.71,0,0,0,5.54-22.7C260.82,227.15,260.84,228.08,260.84,229Z"/></clipPath></defs><g class="cls-2"><g id="Layer_2" data-name="Layer 2"><g id="Layer_1-2" data-name="Layer 1"><path class="cls-1" d="M1573.76,73.25l-13.33,9.68a4.62,4.62,0,0,0-1.68,5.19l5.09,15.66a4.64,4.64,0,0,1-7.14,5.19l-13.33-9.68a4.64,4.64,0,0,0-5.45,0L1524.6,109a4.65,4.65,0,0,1-7.15-5.19l5.1-15.66a4.64,4.64,0,0,0-1.69-5.19l-13.33-9.68a4.64,4.64,0,0,1,2.74-8.39h16.46a4.65,4.65,0,0,0,4.41-3.2l5.1-15.68a4.64,4.64,0,0,1,8.82,0l5.09,15.68a4.66,4.66,0,0,0,4.42,3.2H1571A4.64,4.64,0,0,1,1573.76,73.25Z"/><path class="cls-1" d="M1807.45,135.46v166a5.8,5.8,0,0,1-5.82,5.83h-35.84a10.53,10.53,0,0,1-5.08-1.47,12.08,12.08,0,0,1-4.11-3.4l-63.2-89c-1-1.29-2-1.82-3-1.58s-1.57,1.18-1.57,2.8v86.86a5.59,5.59,0,0,1-1.72,4.13,5.67,5.67,0,0,1-4.14,1.7H1646.6a5.82,5.82,0,0,1-5.85-5.83v-166a5.79,5.79,0,0,1,5.83-5.82H1683a11.36,11.36,0,0,1,5.09,1.33,11.54,11.54,0,0,1,4.13,3.27l63.09,89.06c1,1.29,2,1.86,3,1.7s1.58-1.06,1.58-2.67V135.46a5.77,5.77,0,0,1,5.82-5.82h35.91a5.79,5.79,0,0,1,5.83,5.82Z"/><path class="cls-1" d="M1649.35,83.22a11.87,11.87,0,0,1-4.3,8.08l-65.8,54.64a2.22,2.22,0,0,0-.82,1.72l23.53,159-1,.49c-3.83,1.93-10,2.94-14.27,3a28.31,28.31,0,0,1-12.34-3l-1-.49-21.58-80.38a2.25,2.25,0,0,0-2.24-2.25h-20.63a2.25,2.25,0,0,0-2.24,2.25L1506,306.63l-1,.49c-7.74,4-20.85,4-28.57,0l-1-.49,24.53-159a2.25,2.25,0,0,0-.82-1.72L1433.31,91.3a11.88,11.88,0,0,1-1.76-16.57,12.14,12.14,0,0,1,8.25-4.38,12,12,0,0,1,8.8,2.68l49.79,42.29a79.17,79.17,0,0,0,15.84,10.83c20.47,10.14,40.73,8.06,60.21-6.16l55.33-46.93a11.73,11.73,0,0,1,8.82-2.78A11.91,11.91,0,0,1,1649.35,83.22Z"/><path class="cls-1" d="M1437.67,135.71V301.43a5.65,5.65,0,0,1-1.7,4.13,5.58,5.58,0,0,1-4.1,1.7h-36.45a5.61,5.61,0,0,1-4.12-1.7,5.67,5.67,0,0,1-1.68-4.13V223.3c0-1.61-.73-2.51-2.19-2.67a3.82,3.82,0,0,0-3.65,1.7l-40.87,65.76A4.22,4.22,0,0,1,1339,290a4.87,4.87,0,0,1-4.14-1.93L1294,222.33a3.34,3.34,0,0,0-3.41-1.7c-1.47.16-2.19,1.06-2.19,2.67v78.13a5.65,5.65,0,0,1-1.7,4.13,5.53,5.53,0,0,1-4.1,1.7h-36.45a5.61,5.61,0,0,1-4.12-1.7,5.71,5.71,0,0,1-1.68-4.13V135.71a5.63,5.63,0,0,1,1.7-4.13,5.56,5.56,0,0,1,4.1-1.7H1280a10.7,10.7,0,0,1,5.07,1.45,10.31,10.31,0,0,1,3.87,3.4l46.69,68.43a4.22,4.22,0,0,0,3.41,1.94,3.62,3.62,0,0,0,3.16-1.94l46.7-68.43a12.61,12.61,0,0,1,4.1-3.4,10.71,10.71,0,0,1,5.08-1.45h33.8a5.8,5.8,0,0,1,5.8,5.83Z"/><path class="cls-1" d="M1203.28,135.71V234a86,86,0,0,1-5.46,31.31,67,67,0,0,1-15.63,24,70.52,70.52,0,0,1-24.46,15.4,95,95,0,0,1-63.47,0,70.51,70.51,0,0,1-24.48-15.4,68.59,68.59,0,0,1-15.75-24,84.71,84.71,0,0,1-5.57-31.31V135.71a5.79,5.79,0,0,1,5.79-5.83h36.46a5.6,5.6,0,0,1,4.11,1.7,5.66,5.66,0,0,1,1.69,4.13V234q0,9.47,3,15.66a27.36,27.36,0,0,0,7.55,9.7,27.72,27.72,0,0,0,9.62,5,30.06,30.06,0,0,0,18.51,0,26.49,26.49,0,0,0,9.51-5,28.17,28.17,0,0,0,7.43-9.7q3-6.19,3-15.66V135.71a5.77,5.77,0,0,1,5.8-5.83h36.45a5.8,5.8,0,0,1,5.8,5.83Z"/><path class="cls-1" d="M1030.75,255.93a4.93,4.93,0,0,1-.49,4.24,137.53,137.53,0,0,1-15.53,20.68,89.5,89.5,0,0,1-19,15.8,91.24,91.24,0,0,1-23.41,10.13,104.37,104.37,0,0,1-28.39,3.63,91.35,91.35,0,0,1-36.39-7.28,97,97,0,0,1-29.73-19.66,90.33,90.33,0,0,1-20-29.11,91,91,0,0,1,0-71.34,90.16,90.16,0,0,1,20-29.12,97.36,97.36,0,0,1,29.73-19.66A91.34,91.34,0,0,1,943.89,127a105.85,105.85,0,0,1,28.87,3.64,88.86,88.86,0,0,1,23.29,10.19,87.58,87.58,0,0,1,18.81,15.9,151.34,151.34,0,0,1,15.4,20.5,4.61,4.61,0,0,1,.49,4.13,5.12,5.12,0,0,1-2.91,3.15l-34.45,13.58a6.21,6.21,0,0,1-4.86,0,7.31,7.31,0,0,1-3.64-2.9,51.16,51.16,0,0,0-17-17.11q-9.95-5.94-24-6A39.83,39.83,0,0,0,926.54,176a47.69,47.69,0,0,0-27.06,42.82,46.47,46.47,0,0,0,3.4,17.64,45.87,45.87,0,0,0,9.47,14.72,48.29,48.29,0,0,0,14.19,10.21,39.56,39.56,0,0,0,17.35,3.9A46.25,46.25,0,0,0,968,258.84a49.41,49.41,0,0,0,17.1-16.61,7.54,7.54,0,0,1,3.52-2.92,6.09,6.09,0,0,1,4.74,0l34.45,13.59A5.1,5.1,0,0,1,1030.75,255.93Z"/><path class="cls-1" d="M841,255.93a5,5,0,0,1-.49,4.24A136.86,136.86,0,0,1,825,280.85a89.26,89.26,0,0,1-19,15.8,91.3,91.3,0,0,1-23.42,10.13,104.32,104.32,0,0,1-28.39,3.63,91.47,91.47,0,0,1-36.4-7.28A97.2,97.2,0,0,1,688,283.47a90.46,90.46,0,0,1-20-29.11A91,91,0,0,1,668,183a90.29,90.29,0,0,1,20-29.12,97.56,97.56,0,0,1,29.72-19.66,91.46,91.46,0,0,1,36.4-7.27A105.92,105.92,0,0,1,783,130.61a89.07,89.07,0,0,1,23.3,10.19,88,88,0,0,1,18.8,15.9,150.51,150.51,0,0,1,15.4,20.5,4.7,4.7,0,0,1,.49,4.13,5.11,5.11,0,0,1-2.92,3.15l-34.45,13.58a6.19,6.19,0,0,1-4.85,0,7.26,7.26,0,0,1-3.64-2.9,51.25,51.25,0,0,0-17-17.11q-10-5.94-24-6A39.9,39.9,0,0,0,736.79,176a47,47,0,0,0-23.65,25.31,47.12,47.12,0,0,0,0,35.15,46,46,0,0,0,9.45,14.72,48.6,48.6,0,0,0,14.2,10.21,39.62,39.62,0,0,0,17.35,3.9,46.31,46.31,0,0,0,24.15-6.44,49.58,49.58,0,0,0,17.1-16.61,7.4,7.4,0,0,1,3.52-2.92,6.07,6.07,0,0,1,4.73,0l34.45,13.59A5.09,5.09,0,0,1,841,255.93Z"/><path class="cls-1" d="M633.35,161a109.4,109.4,0,0,0-57.57-57.57,106.94,106.94,0,0,0-83.8,0,108.39,108.39,0,0,0-34.19,23.23A111.53,111.53,0,0,0,434.69,161a107.08,107.08,0,0,0,0,83.81,111.53,111.53,0,0,0,23.1,34.34A108.39,108.39,0,0,0,492,302.41a107.06,107.06,0,0,0,83.8,0,109.4,109.4,0,0,0,57.57-57.57,106.85,106.85,0,0,0,0-83.81Zm-51.86,62.42a54.29,54.29,0,0,1-11.13,17.11,55.37,55.37,0,0,1-16.53,11.83,47.33,47.33,0,0,1-39.9,0,53.36,53.36,0,0,1-16.38-11.83,55.3,55.3,0,0,1-11-17.11,54.63,54.63,0,0,1,11-58,54.65,54.65,0,0,1,16.38-11.69,47.33,47.33,0,0,1,39.9,0,56.76,56.76,0,0,1,16.53,11.69,52.29,52.29,0,0,1,11.13,17.1,54.53,54.53,0,0,1,0,40.9Z"/><path class="cls-1" d="M260.84,235.26a59.92,59.92,0,0,1-5.6,25.58,67.44,67.44,0,0,1-15.66,21.3,73.9,73.9,0,0,1-13.16,9.7,77.37,77.37,0,0,1-10.1,5.05,74.33,74.33,0,0,1-56.17,0,77.35,77.35,0,0,1-7.77-3.74,73,73,0,0,1-15.32-11,68.9,68.9,0,0,1-15.42-21.3A59.65,59.65,0,0,1,116,235.26c0-.94,0-1.87.07-2.81a59.37,59.37,0,0,0,5.56,22.7,68.9,68.9,0,0,0,15.42,21.3,73,73,0,0,0,15.32,11,75.18,75.18,0,0,0,7.77,3.73,74.21,74.21,0,0,0,56.17,0,76.09,76.09,0,0,0,10.1-5,73.9,73.9,0,0,0,13.16-9.7,67.44,67.44,0,0,0,15.66-21.3,59.71,59.71,0,0,0,5.54-22.7C260.82,233.39,260.84,234.32,260.84,235.26Z"/><g class="cls-3"><rect class="cls-4" x="90.1" y="241.21" width="205.06" height="186.14"/></g><path class="cls-1" d="M335.77,230.62v2.61a141.69,141.69,0,0,1-11.65,53.5,149.51,149.51,0,0,1-78.66,78.68,141,141,0,0,1-20.19,7,149,149,0,0,1-71.88.57A137.75,137.75,0,0,1,131,365.41a148.17,148.17,0,0,1-46.74-31.75,152.2,152.2,0,0,1-31.55-46.93,140.25,140.25,0,0,1-11.1-43.92v-5.55a140.25,140.25,0,0,0,11.1,43.92,152.2,152.2,0,0,0,31.55,46.93A148.17,148.17,0,0,0,131,359.86a137.75,137.75,0,0,0,22.44,7.57,149,149,0,0,0,71.88-.57,141,141,0,0,0,20.19-7,149.51,149.51,0,0,0,78.66-78.68,141.69,141.69,0,0,0,11.65-53.5Z"/><path class="cls-1" d="M365.9,171l0,0L213.09,17.81a34.45,34.45,0,0,0-48.78,0L11.62,170.84a1.19,1.19,0,0,0-.15.18,34.54,34.54,0,0,0,22.94,58.87,9.3,9.3,0,0,0,1.07,0h6.08v12.19A139.87,139.87,0,0,0,52.67,286,152.13,152.13,0,0,0,84.22,333,148.19,148.19,0,0,0,131,364.71a136,136,0,0,0,22.45,7.57,148.73,148.73,0,0,0,71.9-.57,139.8,139.8,0,0,0,20.19-7A149.46,149.46,0,0,0,324.19,286a141.5,141.5,0,0,0,11.66-53.49v-2.61h5.64a34.59,34.59,0,0,0,24.41-59Zm-107.21,60.6a72.58,72.58,0,0,1-5.39,25.25,74.55,74.55,0,0,1-28,34,72.36,72.36,0,0,1-9.81,5.53,64.48,64.48,0,0,1-54.54,0,70.3,70.3,0,0,1-7.55-4.1,71.89,71.89,0,0,1-14.87-12.07,76.18,76.18,0,0,1-15-23.37,71.92,71.92,0,0,1-5.41-25.25c0-.93,0-1.87,0-2.81a75,75,0,0,1,20.43-51.21,74.93,74.93,0,0,1,22.42-16,64.68,64.68,0,0,1,54.54,0,77.25,77.25,0,0,1,22.59,16,71.43,71.43,0,0,1,15.2,23.36,73.56,73.56,0,0,1,5.44,27.85C258.74,229.69,258.73,230.63,258.69,231.56Z"/><path class="cls-1" d="M261.4,229.35a60.55,60.55,0,0,1-5.64,25.78A68.34,68.34,0,0,1,240,276.6a75.08,75.08,0,0,1-13.27,9.77,77.92,77.92,0,0,1-10.18,5.08,74.8,74.8,0,0,1-56.6,0,77.54,77.54,0,0,1-7.84-3.76,74,74,0,0,1-15.43-11.09,69.49,69.49,0,0,1-15.54-21.47,60.13,60.13,0,0,1-5.67-25.78c0-.95,0-1.89.07-2.83a59.75,59.75,0,0,0,5.6,22.88,69.33,69.33,0,0,0,15.54,21.46A73.66,73.66,0,0,0,152.09,282a79.81,79.81,0,0,0,7.84,3.77,74.93,74.93,0,0,0,56.6,0,79.19,79.19,0,0,0,10.18-5.08A75.13,75.13,0,0,0,240,270.86a68.19,68.19,0,0,0,15.78-21.46,60.28,60.28,0,0,0,5.58-22.88C261.38,227.46,261.4,228.4,261.4,229.35Z"/><g class="cls-5"><rect class="cls-4" x="89.33" y="235.35" width="206.65" height="187.58"/></g><path class="cls-1" d="M336.91,224.68v2.62a142.66,142.66,0,0,1-11.74,53.92,150.74,150.74,0,0,1-79.27,79.29,142.81,142.81,0,0,1-20.35,7.05,149.91,149.91,0,0,1-72.43.57,137.69,137.69,0,0,1-22.62-7.62,149.33,149.33,0,0,1-47.1-32,153.34,153.34,0,0,1-31.79-47.29A141,141,0,0,1,40.42,237v-5.59a140.92,140.92,0,0,0,11.19,44.25,153.38,153.38,0,0,0,31.79,47.3,149.14,149.14,0,0,0,47.1,32,137.73,137.73,0,0,0,22.62,7.63,149.91,149.91,0,0,0,72.43-.57,141.62,141.62,0,0,0,20.35-7.06,150.65,150.65,0,0,0,79.27-79.29,142.66,142.66,0,0,0,11.74-53.91Z"/><path class="cls-1" d="M367.27,164.55l0,0-154-154.3a34.7,34.7,0,0,0-49.15,0L10.24,164.43a1.1,1.1,0,0,0-.14.18,34.8,34.8,0,0,0,23.12,59.33,9.3,9.3,0,0,0,1.07,0h6.13v12.28a141,141,0,0,0,11.19,44.26,153.37,153.37,0,0,0,31.8,47.29,149.38,149.38,0,0,0,47.11,32,138.12,138.12,0,0,0,22.63,7.62,150,150,0,0,0,72.45-.57A141.58,141.58,0,0,0,246,359.81a150.69,150.69,0,0,0,79.29-79.29A142.67,142.67,0,0,0,337,226.61V224h5.69a34.86,34.86,0,0,0,24.59-59.43Zm-108,61.07a73,73,0,0,1-5.43,25.45,74.92,74.92,0,0,1-15.32,23.55,74,74,0,0,1-12.88,10.72,72.9,72.9,0,0,1-9.89,5.57,64.93,64.93,0,0,1-55,0,69.52,69.52,0,0,1-7.61-4.13,72.42,72.42,0,0,1-15-12.16,76.83,76.83,0,0,1-15.1-23.55,72.37,72.37,0,0,1-5.44-25.45c0-.94-.06-1.88-.06-2.83a75.5,75.5,0,0,1,20.6-51.61,75.23,75.23,0,0,1,22.59-16.12,65.22,65.22,0,0,1,55,0,77.71,77.71,0,0,1,22.77,16.12,71.83,71.83,0,0,1,15.32,23.54,74.1,74.1,0,0,1,5.49,28.07C259.29,223.74,259.27,224.68,259.23,225.62Z"/><path class="cls-1" d="M260.28,228.78a58.76,58.76,0,0,1-5.5,25.09,66.2,66.2,0,0,1-15.36,20.89,73.19,73.19,0,0,1-12.9,9.51,76.27,76.27,0,0,1-9.91,4.94,72.8,72.8,0,0,1-55.08,0,73.45,73.45,0,0,1-7.63-3.66,71.64,71.64,0,0,1-15-10.79,67.69,67.69,0,0,1-15.13-20.89,58.49,58.49,0,0,1-5.52-25.09c0-.92,0-1.83.07-2.75a58.27,58.27,0,0,0,5.45,22.26,67.69,67.69,0,0,0,15.13,20.89,71.64,71.64,0,0,0,15,10.79,75.54,75.54,0,0,0,7.63,3.66,72.8,72.8,0,0,0,55.08,0,76.27,76.27,0,0,0,9.91-4.94,73.19,73.19,0,0,0,12.9-9.51,66.2,66.2,0,0,0,15.36-20.89A58.62,58.62,0,0,0,260.21,226C260.25,227,260.28,227.86,260.28,228.78Z"/><g class="cls-6"><rect class="cls-4" x="92.83" y="234.62" width="201.1" height="182.54"/></g><path class="cls-1" d="M333.75,224.23v2.56a138.88,138.88,0,0,1-11.42,52.46,146.59,146.59,0,0,1-77.14,77.16,138.49,138.49,0,0,1-19.8,6.87,145.92,145.92,0,0,1-70.49.55,133.76,133.76,0,0,1-22-7.42,145.45,145.45,0,0,1-45.84-31.13,149.37,149.37,0,0,1-30.93-46,137.47,137.47,0,0,1-10.89-43.06v-5.45a137.47,137.47,0,0,0,10.89,43.07,149.37,149.37,0,0,0,30.93,46A145.45,145.45,0,0,0,132.89,351a134.7,134.7,0,0,0,22,7.42,145.76,145.76,0,0,0,70.49-.56,138.44,138.44,0,0,0,19.8-6.86,146.59,146.59,0,0,0,77.14-77.16,138.92,138.92,0,0,0,11.42-52.46Z"/><path class="cls-1" d="M363.3,165.72l0,0L213.45,15.53a33.77,33.77,0,0,0-47.84,0L15.87,165.61a1.14,1.14,0,0,0-.15.17,33.88,33.88,0,0,0,22.5,57.74c.34,0,.69,0,1,0h6v12a137.47,137.47,0,0,0,10.89,43.06,149.4,149.4,0,0,0,30.94,46,145.38,145.38,0,0,0,45.85,31.13,133.87,133.87,0,0,0,22,7.42,146,146,0,0,0,70.5-.55,138.62,138.62,0,0,0,19.81-6.87,146.54,146.54,0,0,0,77.16-77.16,138.89,138.89,0,0,0,11.43-52.46v-2.56h5.54a33.92,33.92,0,0,0,23.93-57.83ZM258.16,225.15a71.11,71.11,0,0,1-5.28,24.77A73,73,0,0,1,238,272.83a75.61,75.61,0,0,1-22.16,15.86,63.25,63.25,0,0,1-53.48,0,69.29,69.29,0,0,1-7.4-4,70.36,70.36,0,0,1-14.58-11.84,74.59,74.59,0,0,1-14.69-22.91,70.68,70.68,0,0,1-5.3-24.77c0-.91,0-1.83,0-2.75a73.54,73.54,0,0,1,20-50.23,73.58,73.58,0,0,1,22-15.68,63.45,63.45,0,0,1,53.48,0A75.83,75.83,0,0,1,238,172.17a70,70,0,0,1,14.91,22.92,72.07,72.07,0,0,1,5.33,27.31C258.21,223.32,258.2,224.24,258.16,225.15Z"/><path class="cls-1" d="M260.84,229a59.92,59.92,0,0,1-5.6,25.58,67.44,67.44,0,0,1-15.66,21.3,73.9,73.9,0,0,1-13.16,9.7,78.6,78.6,0,0,1-10.1,5,74.21,74.21,0,0,1-56.17,0,79.07,79.07,0,0,1-23.09-14.74,68.9,68.9,0,0,1-15.42-21.3A59.65,59.65,0,0,1,116,229c0-.94,0-1.87.07-2.81a59.37,59.37,0,0,0,5.56,22.7,69,69,0,0,0,15.42,21.3,72.93,72.93,0,0,0,15.32,11,75.24,75.24,0,0,0,7.77,3.74,74.33,74.33,0,0,0,56.17,0,78.6,78.6,0,0,0,10.1-5,73.9,73.9,0,0,0,13.16-9.7,67.55,67.55,0,0,0,15.66-21.3,59.71,59.71,0,0,0,5.54-22.7C260.82,227.15,260.84,228.08,260.84,229Z"/><g class="cls-7"><rect class="cls-4" x="90.1" y="234.97" width="205.06" height="186.14"/></g><path class="cls-1" d="M335.77,224.38V227a141.68,141.68,0,0,1-11.65,53.49,149.42,149.42,0,0,1-78.66,78.68,141,141,0,0,1-20.19,7,148.65,148.65,0,0,1-71.88.57A135.87,135.87,0,0,1,131,359.16a148.15,148.15,0,0,1-46.74-31.74,152.13,152.13,0,0,1-31.55-46.94,140.12,140.12,0,0,1-11.1-43.91V231a140.12,140.12,0,0,0,11.1,43.91,152.13,152.13,0,0,0,31.55,46.94A148.15,148.15,0,0,0,131,353.61a135.87,135.87,0,0,0,22.44,7.57,148.65,148.65,0,0,0,71.88-.57,141,141,0,0,0,20.19-7,149.42,149.42,0,0,0,78.66-78.68,141.68,141.68,0,0,0,11.65-53.49Z"/><path class="cls-1" d="M365.9,164.72l0-.05L213.09,11.57a34.43,34.43,0,0,0-48.78,0L11.62,164.6l-.15.17a34.54,34.54,0,0,0,22.94,58.88,9.3,9.3,0,0,0,1.07,0h6.08v12.19a140,140,0,0,0,11.11,43.91,152.09,152.09,0,0,0,31.55,46.93A148.05,148.05,0,0,0,131,358.47,136.91,136.91,0,0,0,153.42,366a148.73,148.73,0,0,0,71.9-.57,141,141,0,0,0,20.19-7,149.55,149.55,0,0,0,78.68-78.68,141.51,141.51,0,0,0,11.66-53.5v-2.6h5.64a34.59,34.59,0,0,0,24.41-59Zm-107.21,60.6a72.62,72.62,0,0,1-5.39,25.25,74.26,74.26,0,0,1-15.2,23.36,73.31,73.31,0,0,1-12.78,10.65,72.36,72.36,0,0,1-9.81,5.53,64.48,64.48,0,0,1-54.54,0,75.25,75.25,0,0,1-22.42-16.18,76.13,76.13,0,0,1-15-23.36,72,72,0,0,1-5.41-25.25c0-.93,0-1.87,0-2.81a75.06,75.06,0,0,1,20.43-51.22,75.11,75.11,0,0,1,22.42-16,64.78,64.78,0,0,1,54.54,0,77.44,77.44,0,0,1,22.59,16,71.37,71.37,0,0,1,15.2,23.37,73.52,73.52,0,0,1,5.44,27.85C258.74,223.45,258.73,224.39,258.69,225.32Z"/><path class="cls-1" d="M260.84,229a59.92,59.92,0,0,1-5.6,25.58,67.44,67.44,0,0,1-15.66,21.3,73.9,73.9,0,0,1-13.16,9.7,78.6,78.6,0,0,1-10.1,5,74.21,74.21,0,0,1-56.17,0,79.07,79.07,0,0,1-23.09-14.74,68.9,68.9,0,0,1-15.42-21.3A59.65,59.65,0,0,1,116,229c0-.94,0-1.87.07-2.81a59.37,59.37,0,0,0,5.56,22.7,69,69,0,0,0,15.42,21.3,72.93,72.93,0,0,0,15.32,11,75.24,75.24,0,0,0,7.77,3.74,74.33,74.33,0,0,0,56.17,0,78.6,78.6,0,0,0,10.1-5,73.9,73.9,0,0,0,13.16-9.7,67.55,67.55,0,0,0,15.66-21.3,59.71,59.71,0,0,0,5.54-22.7C260.82,227.15,260.84,228.08,260.84,229Zm74.93-7.58a141.68,141.68,0,0,1-11.65,53.49,149.42,149.42,0,0,1-78.66,78.68,141,141,0,0,1-20.19,7,148.65,148.65,0,0,1-71.88.57A135.87,135.87,0,0,1,131,353.61a148.15,148.15,0,0,1-46.74-31.74,152.13,152.13,0,0,1-31.55-46.94A140.12,140.12,0,0,1,41.56,231v5.55a140.12,140.12,0,0,0,11.1,43.91,152.13,152.13,0,0,0,31.55,46.94A148.15,148.15,0,0,0,131,359.16a135.87,135.87,0,0,0,22.44,7.57,148.65,148.65,0,0,0,71.88-.57,141,141,0,0,0,20.19-7,149.42,149.42,0,0,0,78.66-78.68A141.68,141.68,0,0,0,335.77,227v-5.55Zm40.07-29.54a34.44,34.44,0,0,1-34.35,31.79h-5.64v2.6a141.51,141.51,0,0,1-11.66,53.5,149.55,149.55,0,0,1-78.68,78.68,141,141,0,0,1-20.19,7,148.73,148.73,0,0,1-71.9.57A136.91,136.91,0,0,1,131,358.47a148.05,148.05,0,0,1-46.75-31.75,152.09,152.09,0,0,1-31.55-46.93,140,140,0,0,1-11.11-43.91V223.69H35.48a9.3,9.3,0,0,1-1.07,0,34.57,34.57,0,0,1-22.94-58.88l.15-.17,152.69-153a34.43,34.43,0,0,1,48.78,0l152.78,153.1,0,.05A34.46,34.46,0,0,1,375.84,191.9Zm-117.1,30.61a73.52,73.52,0,0,0-5.44-27.85,71.37,71.37,0,0,0-15.2-23.37,77.44,77.44,0,0,0-22.59-16,64.78,64.78,0,0,0-54.54,0,75.11,75.11,0,0,0-22.42,16,75.06,75.06,0,0,0-20.43,51.22c0,.94,0,1.88,0,2.81a72,72,0,0,0,5.41,25.25,76.13,76.13,0,0,0,15,23.36A75.25,75.25,0,0,0,161,290.11a64.48,64.48,0,0,0,54.54,0,72.36,72.36,0,0,0,9.81-5.53,73.31,73.31,0,0,0,12.78-10.65,74.26,74.26,0,0,0,15.2-23.36,72.62,72.62,0,0,0,5.39-25.25C258.73,224.39,258.74,223.45,258.74,222.51Z"/></g></g></g></svg>